<svg width="20" height="20" viewBox="0 0 20 20" fill="none" xmlns="http://www.w3.org/2000/svg">
<path d="M3.33203 5L3.33206 15.0006" stroke="#1B2530" stroke-width="1.2" stroke-linecap="round" stroke-linejoin="round"/>
<path d="M10.4143 10.0091V10.3178C10.4481 12.7938 10.3357 13.6539 9.29349 13.2546L9.03682 13.103L8.82966 12.959L8.38366 12.6148L7.54997 11.8904L6.69756 11.1706L6.2809 10.793L6.09536 10.6043L5.87688 10.2883L5.83203 10.0081L5.87688 9.72975L6.09536 9.41392L6.2809 9.22509L6.69756 8.8475L7.54997 8.1277L8.38366 7.40325L8.82966 7.0591L9.03682 6.91511L9.29349 6.76351C10.3357 6.36416 10.4481 7.22435 10.4143 9.70025V10.0091ZM10.4143 10.0091H16.6667" stroke="#1B2530" stroke-width="1.2" stroke-linecap="round" stroke-linejoin="round"/>
</svg>
